<svg xmlns="http://www.w3.org/2000/svg" viewBox="0 0 404.57 41.28">
  <g id="レイヤー_2" data-name="レイヤー 2">
    <g id="レイヤー_1-2" data-name="レイヤー 1">
      <path
        d="M0,20.64C0,8.16,8.28,0,21.42,0A26.15,26.15,0,0,1,33.54,2.88V9.66A22.2,22.2,0,0,0,21.42,6.24c-8.82,0-14.58,5.7-14.58,14.4S12.72,35,21.42,35A22.5,22.5,0,0,0,34,31.26V38a24,24,0,0,1-12.54,3.24C8.34,41.28,0,33.18,0,20.64Z"/>
      <path d="M42.78.9H49.5V34.08H66.42v6.3H42.78Z"/>
      <path
        d="M88.2.72h6.3l15.72,39.66H103L99.06,30.3H83.22L79.38,40.38h-6.9ZM96.84,24.3l-3.72-9.66-2-5.94-2,5.94L85.38,24.3Z"/>
      <path
        d="M117.48.9h13c13.08,0,21.36,7.56,21.36,19.26,0,12.3-8.46,20.22-21.84,20.22H117.48Zm12.9,33.18c9.06,0,14.76-5.46,14.76-13.92,0-7.86-5.52-13-14.28-13H124.2V34.08Z"/>
      <path d="M159.78.9h6.72V40.38h-6.72Z"/>
      <path d="M176.76.9h7.08l18.24,25.2L205,30.42l-.06-4.2V.9h6.36V40.38h-7l-18.42-25.5-2.76-4.08.06,4V40.38h-6.42Z"/>
      <path
        d="M242.22.9h7l7.5,25.56L258.06,32l1.38-5.58L266.88.9h7l7.38,25.56L282.65,32,284,26.46,291.35.9h6.72L285.89,40.38h-7l-7.44-25.62-1.27-5.4-1.31,5.4-7.38,25.62H254.4Z"/>
      <path
        d="M303.83,20.64C303.83,8.4,312.35,0,324.41,0s20.52,8.1,20.52,20.64-8.1,20.64-20.52,20.64S303.83,32.88,303.83,20.64Zm34.32,0c0-8.76-5.52-14.46-13.74-14.46s-13.74,5.7-13.74,14.46,5.52,14.46,13.74,14.46S338.15,29.4,338.15,20.64Z"/>
      <path
        d="M327.83,20.64C327.83,8.4,336.35,0,348.41,0s20.52,8.1,20.52,20.64-8.1,20.64-20.52,20.64S327.83,32.88,327.83,20.64Zm34.32,0c0-8.76-5.52-14.46-13.74-14.46s-13.74,5.7-13.74,14.46,5.52,14.46,13.74,14.46S362.15,29.4,362.15,20.64Z"/>
      <path
        d="M379.31.9h10.92c8.76,0,13.08,3.42,13.08,9.84,0,4.56-2.22,7.92-6.3,9.42,5,1.2,7.56,4.5,7.56,9.36,0,7.08-4.5,10.86-13.5,10.86H379.31Zm10.92,16.8c3.84,0,6.36-1.86,6.36-5.64,0-3.6-2.52-5.34-6.3-5.34H386v11Zm1.08,16.86c4,0,6.6-1.86,6.6-5.7s-2.58-5.64-6.84-5.64h-5V34.56Z"/>
    </g>
  </g>
</svg>
